<svg version="1" xmlns="http://www.w3.org/2000/svg" width="800" height="800" viewBox="0 0 600.000000 600.000000"><path d="M0 300v300h600V0H0v300zM471.3 60c12.6 1.8 22.5 8.9 27.9 19.8l3.3 6.7v427l-2.8 5.7c-3.7 7.4-9.4 13-17.5 17-6.1 3-7.5 3.3-16.2 3.3-14 0-19.1-2.7-35.7-18.7-7-6.8-37.1-35.7-66.8-64.3-29.7-28.5-56.3-54-59-56.7l-5.1-4.8-46.4 44.7c-25.6 24.5-57.9 55.6-71.9 69.1-30.5 29.4-32.6 30.7-48.1 30.7-8.8 0-10.1-.3-16.2-3.3-8.1-4-13.9-9.6-17.5-17l-2.8-5.7v-427l2.6-5.6c5.2-11.1 15.8-19.1 27.6-20.8 8.4-1.2 336.2-1.3 344.6-.1z"/><path d="M360.5 125.3c-4.9 2.9-9.1 6-9.3 6.9-.2 1 1.3 5.7 3.2 10.6 4.2 10.4 4.3 11.1 1.6 15.4-1.9 3.2-2.4 3.4-12.7 5-7.7 1.2-11.1 2.2-12 3.4-1.7 2.4-1.8 20.4 0 22.7.8 1.2 4.3 2.1 11.6 3.1 8.8 1.2 10.8 1.8 12.3 3.8 2.8 3.6 3.2 6.6 1.3 11.1-3.7 9-5.5 14.2-5.5 15.9 0 2.5 18.6 13.3 21 12.2 1-.5 4.8-4.6 8.4-9.2 6.5-8 6.8-8.2 11-8.2s4.4.2 11.5 9c4 4.9 7.8 9 8.5 9 .6 0 4.5-2 8.6-4.3 10.8-6.2 12-7.1 12-8.3 0-.7-1.8-5.7-4-11.2l-4-10 2.2-3.9c1.2-2.1 2.2-3.9 2.3-4 0-.1 3.4-.7 7.5-1.3 4.1-.6 9.4-1.6 11.8-2.2l4.2-1.1v-11.9c0-13.8 1.2-12.4-13.4-14.7l-10.1-1.6-2.2-4.1-2.3-4.1 3.6-8.7c5.4-13.3 5.5-13-5.1-19.2-4.9-2.9-9.8-5.3-10.7-5.4-.9 0-4.7 3.7-8.5 8.4l-6.8 8.5h-5.2l-5.2.1-6.7-8.5c-3.7-4.7-7.4-8.5-8.3-8.5-.9 0-5.6 2.4-10.6 5.3zm40.8 35c2.4 1.4 5.6 4.4 7.2 6.7 2.4 3.5 2.9 5.1 2.9 10.5 0 5.3-.5 7.2-3 11.1-4.2 6.8-9.9 9.7-18.1 9.2-22.6-1.4-26.4-31.4-5.1-39.5 4.7-1.8 11-1 16.1 2zM232.3 158.2c-2.8 1.3-3.1 2.3-5.2 16.1-1.7 11.2-1.7 11.2-5.1 12.9-7.9 3.9-9 3.7-18.8-4.1-6.2-4.9-9.9-7.1-11.8-7.1-2.2 0-5.2 2.4-14.6 11.8-7.3 7.4-11.8 12.6-11.8 13.9 0 1.1 3.4 6.3 7.5 11.4 4.1 5.2 7.5 9.9 7.5 10.5 0 .6-1.1 3.6-2.4 6.6l-2.5 5.5-6.5 1.2c-3.6.6-9.5 1.6-13.1 2.2-4.5.8-6.9 1.7-7.5 3-1.3 2.3-1.3 31.5 0 33.9.7 1.3 3 2.1 8.2 3 4 .6 9.9 1.7 13.1 2.3l5.8 1.2 2.5 6c1.3 3.3 2.4 6.4 2.4 6.8 0 .5-3.1 4.9-7 9.9-4.2 5.4-7 10-7 11.4 0 3 21.1 25.1 24.7 26 1.9.5 4.4-.9 12.5-7.1l10.1-7.8 5.6 2.3c3.1 1.3 5.9 2.6 6.3 2.9.4.3 1.4 5.8 2.3 12.1 2.5 17.1 1.1 16.1 21.8 15.8l17.2-.3 1.2-2.6c.9-1.9 4.3-21.3 4.3-24.6 0-.5 11.1-5.3 12.2-5.3.6 0 4.4 2.7 8.6 6.1 11.9 9.6 11.8 9.6 15.5 7.5 4.2-2.2 12.2-9.6 18.6-17 5.4-6.2 6.5-10.2 3.6-12.6-2.7-2.2-12.5-15.8-12.5-17.3 0-.8 1.1-3.9 2.4-6.8l2.4-5.4 8.8-1.3c4.9-.7 10.6-1.5 12.7-1.8 6.1-.9 6.7-2.7 6.7-20.1 0-13.4-.2-15.5-1.8-17.1-1.7-1.7-8.4-3.2-21-4.8-5.2-.6-5.4-.7-7.4-5.3-3.8-8.9-3.7-9.1 4.1-19.2 3.9-5 7.1-9.7 7.1-10.3 0-2.4-4.1-7.5-13.6-16.9-7-6.9-10.5-9.7-12.3-9.7-1.5 0-6.1 2.8-11.7 7-5.2 3.8-10 7-10.7 7-1.2 0-10.4-3.6-11.5-4.5-.2-.2-.5-1.9-3.2-18.3-1.7-10.1-1.9-10.2-20-10.1-8.1 0-15.5.5-16.7 1.1zm30.5 62.8c22.3 7.9 33.1 34.1 22.9 55.9-2.8 6-11.5 15.2-17.4 18.3-15.9 8.5-35.8 5.5-48.3-7.3-6.5-6.7-9.7-12.8-11.2-21.9-2.2-12.9 1.3-24.6 10.4-34.6 5.3-5.8 14.1-10.8 21.8-12.4 5.8-1.2 15.1-.3 21.8 2zM405.1 289c-3.4 3.9-6.7 8-7.4 9.1-.9 1.5-2.3 1.9-6.3 1.9h-5l-6.3-8c-3.5-4.3-7.1-8.2-8.2-8.5-1.8-.6-3.3.1-16.6 7.6-5.3 3-5.4 4.2-.8 15 1.9 4.6 3.5 8.9 3.5 9.7 0 .7-.9 3-2 5.2-1.9 3.8-2.1 3.9-8.7 4.5-7.9.8-14.3 2.3-16 3.7-1.9 1.5-1.8 21.2.1 23.1.8.7 5.4 1.9 10.2 2.6 11.4 1.6 12.6 2.1 14.9 6.5 1.9 3.5 1.9 3.7.1 8.3-4.8 12.5-5.6 14.9-5.6 16.4 0 1.5 7.6 6.6 16.9 11.3 3.2 1.7 3.4 1.7 5.8-.6 1.4-1.3 4.6-5 7.1-8.3 5.7-7.4 5.8-7.5 10.8-7.5 4 0 4.5.3 10 7.2 5.2 6.6 9.2 10.8 10 10.8 1.8 0 20.4-11.6 20.4-12.7 0-.9-1.6-5.6-3.7-10.6-2-5-3.6-9.6-3.6-10.4 0-2.6 3.8-8.4 5.8-8.7 1.1-.2 5.6-.9 10-1.6 12.2-1.8 11.6-1.1 11.3-14.8l-.3-11.6-5.5-1.3c-3-.6-8.1-1.5-11.2-1.8-5.4-.6-5.8-.8-8.2-4.9l-2.5-4.3 3.9-9.9c2.2-5.4 4-10.5 4-11.1 0-1.4-3.5-3.7-14.2-9.7l-6.6-3.7-6.1 7.1zm-8.6 32.1c9.1 2.5 14.9 10.3 14.9 19.9-.1 6.3-1.8 10.1-6.6 14.7-4.2 4-7.6 5.3-14.3 5.3-6.8 0-13.8-4.4-17.3-11-3.4-6.4-2.7-15.6 1.5-20.8 3.9-4.7 7.3-7.2 11.4-8.2 4.8-1.1 5.9-1.1 10.4.1z"/></svg>